<svg width="34" height="28" viewBox="0 0 34 28" fill="none" xmlns="http://www.w3.org/2000/svg">
  <path fill-rule="evenodd" clip-rule="evenodd"
    d="M0.167087 2.72284C-0.32714 1.81365 0.334356 0.708984 1.37302 0.708984H8.89888C10.7535 0.708984 12.4839 1.63658 13.5044 3.17777L23.6287 18.468L17.8009 27.3799C17.2631 28.2024 16.0549 28.2079 15.5095 27.3903C15.4651 27.3237 15.5063 27.3855 15.5095 27.3903C15.5095 27.3903 14.8279 26.3631 14.5142 25.8874C11.9985 22.0726 5.23862 11.7193 1.09109 4.38695C0.766641 3.81337 0.457507 3.2571 0.167087 2.72284ZM16.643 21.1345C15.7157 19.7143 14.5951 17.9861 13.3884 16.0993C11.1694 12.6297 8.67923 8.65515 6.56563 5.08212H9.50369L18.3769 18.4829L16.643 21.1345Z"
    fill="#56FAA5" />
  <path d="M17.8398 9.56962L11.4472 0L6.49805 0.341772L12.3408 9.56962H17.8398Z" fill="url(#paint0_linear_118_2790)"
    fill-opacity="0.35" />
  <path d="M13.4001 11.2238L18.3982 18.3713L23.6289 18.3713L18.9084 11.2238L13.4001 11.2238Z"
    fill="url(#paint1_linear_118_2790)" fill-opacity="0.5" />
  <path fill-rule="evenodd" clip-rule="evenodd"
    d="M19.7653 3.18012C20.7821 1.63759 22.5078 0.708984 24.3573 0.708984H31.8302C32.8651 0.708984 33.5245 1.81295 33.0325 2.72203C32.744 3.25509 32.4369 3.81011 32.1147 4.38239C31.7058 5.10841 31.3324 5.77504 30.9813 6.40195C29.1595 9.65427 27.9365 11.8376 25.4695 15.6993L24.7924 16.7591C24.5783 17.0942 24.0894 17.098 23.8701 16.7662L21.8949 13.7778C21.7755 13.5973 21.7735 13.3636 21.8898 13.1811L22.1736 12.7352C24.0705 9.7561 24.9676 8.15608 26.2108 5.93875C26.2188 5.92452 26.2268 5.91025 26.2348 5.89596C26.4401 5.52986 26.1751 5.07813 25.7548 5.07813H24.0477C23.8627 5.07813 23.6902 5.17099 23.5885 5.32524L18.7642 12.6435L18.4575 13.1412C18.3575 13.3036 18.1802 13.4026 17.9893 13.4026H13.2281C13.0384 13.4026 12.8621 13.3049 12.7617 13.1442L10.7175 9.87283C10.4891 9.50724 10.7523 9.03343 11.1839 9.03343H15.6104C15.7953 9.03343 15.9679 8.94057 16.0696 8.78632L19.7653 3.18012Z"
    fill="#FFCC4A" />
  <defs>
    <linearGradient id="paint0_linear_118_2790" x1="15.2965" y1="10.1848" x2="11.685" y2="3.4009"
      gradientUnits="userSpaceOnUse">
      <stop offset="0.124993" stop-color="#171727" />
      <stop offset="1" stop-color="#171727" stop-opacity="0" />
    </linearGradient>
    <linearGradient id="paint1_linear_118_2790" x1="15.9528" y1="10.6085" x2="19.5643" y2="17.3924"
      gradientUnits="userSpaceOnUse">
      <stop offset="0.124993" stop-color="#171727" />
      <stop offset="1" stop-color="#171727" stop-opacity="0" />
    </linearGradient>
  </defs>
</svg>